HIERARCHY
ROOT root
{
	OFFSET 0.000000 0.000000 0.000000
	CHANNELS 6 Xposition Yposition Zposition Zrotation Yrotation Xrotation
	JOINT lhip
	{
		OFFSET 0.058581 -0.082280 -0.017664
		CHANNELS 3 Zrotation Yrotation Xrotation
		JOINT lknee
		{
			OFFSET 0.043451 -0.386469 0.008037
			CHANNELS 3 Zrotation Yrotation Xrotation
			JOINT lankle
			{
				OFFSET -0.014790 -0.426874 -0.037428
				CHANNELS 3 Zrotation Yrotation Xrotation
				JOINT ltoe
				{
					OFFSET 0.041054 -0.060286 0.122042
					CHANNELS 3 Zrotation Yrotation Xrotation
					End Site
					{
						OFFSET 0.000000 0.000000 0.000000
					}
				}
			}
		}
	}
	JOINT rhip
	{
		OFFSET -0.060310 -0.090513 -0.013543
		CHANNELS 3 Zrotation Yrotation Xrotation
		JOINT rknee
		{
			OFFSET -0.043257 -0.383688 -0.004843
			CHANNELS 3 Zrotation Yrotation Xrotation
			JOINT rankle
			{
				OFFSET 0.019056 -0.420046 -0.034562
				CHANNELS 3 Zrotation Yrotation Xrotation
				JOINT rtoe
				{
					OFFSET -0.034840 -0.062106 0.130323
					CHANNELS 3 Zrotation Yrotation Xrotation
					End Site
					{
						OFFSET 0.000000 0.000000 0.000000
					}
				}
			}
		}
	}
	JOINT lowerback
	{
		OFFSET 0.004439 0.124404 -0.038385
		CHANNELS 3 Zrotation Yrotation Xrotation
		JOINT upperback
		{
			OFFSET 0.004488 0.137956 0.026820
			CHANNELS 3 Zrotation Yrotation Xrotation
			JOINT chest
			{
				OFFSET -0.002265 0.056032 0.002855
				CHANNELS 3 Zrotation Yrotation Xrotation
				JOINT lowerneck
				{
					OFFSET -0.013390 0.211636 -0.033468
					CHANNELS 3 Zrotation Yrotation Xrotation
					JOINT upperneck
					{
						OFFSET 0.010113 0.088937 0.050410
						CHANNELS 3 Zrotation Yrotation Xrotation
						End Site
						{
							OFFSET 0.000000 0.000000 0.000000
						}
					}
				}
				JOINT lclavicle
				{
					OFFSET 0.071702 0.114000 -0.018898
					CHANNELS 3 Zrotation Yrotation Xrotation
					JOINT lshoulder
					{
						OFFSET 0.122921 0.045205 -0.019046
						CHANNELS 3 Zrotation Yrotation Xrotation
						JOINT lelbow
						{
							OFFSET 0.255332 -0.015649 -0.022946
							CHANNELS 3 Zrotation Yrotation Xrotation
							JOINT lwrist
							{
								OFFSET 0.265709 0.012698 -0.007375
								CHANNELS 3 Zrotation Yrotation Xrotation
								End Site
								{
									OFFSET 0.000000 0.000000 0.000000
								}
							}
						}
					}
				}
				JOINT rclavicle
				{
					OFFSET -0.082954 0.112472 -0.023707
					CHANNELS 3 Zrotation Yrotation Xrotation
					JOINT rshoulder
					{
						OFFSET -0.113228 0.046853 -0.008472
						CHANNELS 3 Zrotation Yrotation Xrotation
						JOINT relbow
						{
							OFFSET -0.260127 -0.014369 -0.031269
							CHANNELS 3 Zrotation Yrotation Xrotation
							JOINT rwrist
							{
								OFFSET -0.269108 0.006794 -0.006027
								CHANNELS 3 Zrotation Yrotation Xrotation
								End Site
								{
									OFFSET 0.000000 0.000000 0.000000
								}
							}
						}
					}
				}
			}
		}
	}
}
MOTION
Frames: 7
Frame Time: 0.033333
-2.090754 0.691099 1.021546 42.949844 -0.044595 90.846542 2.543911 2.395265 -6.250907 -3.488428 9.643396 13.900953 1.657996 8.113640 -7.998015 0.000000 -0.000000 0.000000 0.927287 -4.725708 -6.721310 -3.701155 -12.910827 19.785662 4.643396 -8.750965 -2.493826 0.000000 -0.000000 0.000000 -2.011099 0.885473 6.789725 1.209192 -1.415156 -0.841547 2.168281 -0.478818 0.638610 -1.328086 17.633988 -9.078198 -4.465291 18.146236 -3.439763 -15.430055 -6.268407 -0.447029 -56.803452 -11.300205 25.542413 -116.347601 -67.445143 136.936315 -0.787379 -10.733702 -23.513833 12.007934 7.642356 1.855016 59.190626 4.214919 33.707999 133.281119 73.656204 140.424667 8.564262 9.070482 -51.398584 
-2.087079 0.697275 1.020439 46.457191 0.105370 90.806246 1.893406 1.658311 -5.887153 -3.407321 7.778285 12.076264 2.039356 8.394073 -7.623697 0.000000 -0.000000 0.000000 0.900904 -5.268074 -6.652121 -3.857055 -13.050965 20.096021 4.330247 -10.364533 -2.447048 0.000000 -0.000000 0.000000 -1.855605 0.955650 6.269748 1.486391 -1.451711 -0.710013 2.126853 -0.594711 1.059109 -1.575328 15.894564 -8.733398 -4.262700 17.173069 -4.398101 -14.652610 -5.922523 -0.531725 -57.317020 -11.509258 27.125310 -117.367415 -65.447830 136.961163 2.887515 -7.562667 -31.977077 11.832212 7.155081 1.264478 59.476947 4.265405 34.315418 133.168385 73.477913 139.611206 6.100039 7.462705 -51.976660 
-2.082310 0.704050 1.019249 49.425240 0.178440 90.401536 1.298827 0.576625 -4.974143 -3.547553 6.053002 10.510039 1.997467 7.884314 -7.682723 0.000000 -0.000000 0.000000 0.433920 -5.483295 -6.120414 -4.114050 -13.944268 20.515663 4.461921 -11.014106 -3.374733 0.000000 -0.000000 0.000000 -1.694862 1.047138 6.693148 1.554254 -1.360036 -1.040765 2.175663 -0.363963 1.041732 -1.432415 14.879625 -8.487249 -4.021257 15.418481 -4.259513 -14.577202 -5.442777 -0.728304 -57.653666 -11.473818 27.663452 -116.422694 -65.324276 134.898554 4.195205 -8.337192 -33.517234 12.159427 6.788152 1.125596 59.629040 3.859071 34.388369 132.290930 74.054649 138.475609 4.859455 6.657284 -50.744980 
-2.077380 0.711010 1.017279 51.976437 0.451219 90.305457 1.043251 0.047317 -4.328307 -3.666969 3.943670 9.196925 1.838876 7.302366 -8.620682 0.000000 -0.000000 0.000000 -0.038769 -5.415703 -5.839334 -3.778467 -14.113497 21.054170 4.417658 -10.914642 -4.874148 0.000000 -0.000000 0.000000 -1.586837 1.370008 6.549480 1.723381 -0.743897 -1.430967 2.363434 -0.397375 1.191270 -1.013550 13.786497 -8.133872 -3.716073 13.734319 -3.908549 -14.400518 -4.939970 -0.678654 -58.097004 -11.460495 27.743419 -116.273659 -65.709215 134.995680 3.547523 -9.135709 -34.059996 12.314549 6.529520 1.117530 59.702676 3.463108 34.156416 132.406675 74.038299 138.627944 4.903827 7.545616 -51.317872 
-2.072554 0.717768 1.013822 54.287115 0.459068 90.132712 0.621301 -0.149215 -3.379676 -4.071693 1.326957 7.633786 1.772739 6.602939 -9.855716 0.000000 -0.000000 0.000000 -0.776762 -5.251740 -5.926615 -3.759549 -13.734614 22.728360 4.508877 -10.391713 -7.810471 0.000000 -0.000000 0.000000 -1.498258 1.693470 6.307800 1.687577 -0.238840 -1.635957 2.195713 -0.288584 1.280751 -0.206410 12.802040 -7.747415 -3.608757 11.632454 -3.068286 -14.514016 -3.991964 -1.171758 -57.696315 -11.778554 27.313278 -115.629319 -66.030077 135.324588 2.883426 -10.460926 -32.280376 12.647139 6.252555 0.875359 59.679225 3.191060 33.997392 129.906863 74.172104 136.175835 5.100923 8.694215 -51.646127 
-2.068681 0.723979 1.009982 56.763022 0.468976 90.124376 0.345679 0.208347 -3.496524 -4.568424 -0.480489 7.550292 1.660839 5.925037 -11.136811 0.000000 -0.000000 0.000000 -1.310425 -4.930526 -6.275904 -3.733832 -13.157625 24.517686 4.164176 -9.966849 -9.630368 0.000000 -0.000000 0.000000 -1.654993 1.551438 6.015189 1.876056 0.253668 -1.575838 1.915216 -0.146560 1.254438 0.667472 11.779555 -7.664180 -3.695219 9.683956 -2.731413 -14.750997 -2.831814 -2.094137 -56.515324 -12.438959 25.718018 -118.383957 -66.563945 143.442368 -1.484585 -10.903553 -28.308034 13.179153 6.063639 0.642860 59.578888 2.990594 33.470521 128.540243 74.652190 136.254797 7.165966 10.251957 -52.436434 
-2.066255 0.729219 1.008234 59.718708 0.253879 89.748646 0.122249 -0.770740 -3.754609 -5.497592 -1.594986 8.148656 1.300055 5.267454 -12.144960 0.000000 -0.000000 0.000000 -1.750776 -4.560673 -5.729338 -3.697532 -12.472013 25.315246 4.126792 -9.577907 -11.228369 0.000000 -0.000000 0.000000 -2.232678 1.967965 6.382597 1.905050 0.222114 -1.725300 1.842756 -0.247736 1.123945 1.193739 10.855789 -7.553412 -3.056753 7.596239 -2.477063 -15.121584 -3.266332 -1.557675 -55.894808 -12.275534 26.202639 -117.624783 -66.916507 140.463857 -0.800228 -12.454815 -30.277310 13.809228 5.871838 0.533263 59.252617 2.532251 33.444506 128.885476 74.948501 136.242609 6.462505 10.337204 -51.876643 
